<?xml version="1.0" encoding="UTF-8" standalone="no"?>
<svg width="504px" height="72px" viewBox="0 0 504 72" version="1.1" xmlns="http://www.w3.org/2000/svg" xmlns:xlink="http://www.w3.org/1999/xlink">
    <!-- Generator: Sketch 39.1 (31720) - http://www.bohemiancoding.com/sketch -->
    <title>Rectangle 18</title>
    <desc>Created with Sketch.</desc>
    <defs></defs>
    <g id="Page-1" stroke="none" stroke-width="1" fill="none" fill-rule="evenodd">
        <g id="Mobile-Portrait-Copy-6" transform="translate(-41.000000, -1667.000000)">
            <g id="Group-10" transform="translate(401.000000, 1667.000000)">
                <path d="M8.99999998,63.0028062 C8.99999997,66.8672496 11.3749091,67.9643636 14.312762,65.4462039 L19.9622085,60.6038213 C21.6399344,59.1657705 24.415975,59.0892116 26.1635342,60.4334879 L32.8364657,65.5665121 C34.5836374,66.9104904 37.415975,66.9107884 39.1635342,65.5665121 L45.8364657,60.4334879 C47.5836374,59.0895096 50.3550995,59.1615139 52.0377915,60.6038213 L57.6872381,65.4462039 C60.6213956,67.9611961 63.0000002,66.8716078 63.0000002,62.9975514 C63.0000002,62.9975514 63,39.9543664 63,33 C63,19.745166 52,7 36,7 C20,7 9,19.745166 9,33 C9,41.4392307 8.99999998,63.0028062 8.99999998,63.0028062 Z" id="Oval-7" stroke="#484848" stroke-width="4"></path>
                <circle id="Oval-8" fill="#484848" cx="28" cy="30" r="3.5"></circle>
                <circle id="Oval-8-Copy" fill="#484848" cx="44" cy="30" r="3.5"></circle>
                <path d="M36,47 C27.5490311,47 25.232775,41.8342743 25.232775,41.8342743 C24.9563817,41.3735173 25.182473,41 25.7297144,41 L46.2702856,41 C46.821131,41 47.0506292,41.3936768 46.7497792,41.8596537 C46.7497792,41.8596537 44.4509689,47 36,47 Z" id="Combined-Shape" fill="#484848"></path>
            </g>
            <g id="Group-4" transform="translate(339.500000, 1698.500000)" fill="#484848">
                <circle id="Oval-5" cx="4.5" cy="4.5" r="4.5"></circle>
                <circle id="Oval-5-Copy" cx="25.5" cy="4.5" r="4.5"></circle>
                <circle id="Oval-5-Copy-2" cx="46.5" cy="4.5" r="4.5"></circle>
            </g>
            <g id="Group-2" transform="translate(192.000000, 1673.000000)" stroke="#484848" stroke-width="4">
                <path d="M41,18 L41,36 C41,36 41.9968681,42.8272057 47.9832649,42.8272057 C54.135704,42.8272057 57.36129,38.8988876 58.5650864,36.4123573 C59.7688828,33.925827 60,31.0262276 60,30 C60,13.4314575 46.5685425,0 30,0 C13.4314575,0 0,13.4314575 0,30 C0,46.5685425 13.4314575,60 30,60 C36.7461236,60 42.9721719,57.7732928 47.9832648,54.0147583" id="Oval-2" stroke-linecap="round"></path>
                <circle id="Oval-3" cx="29" cy="30" r="12"></circle>
            </g>
            <g id="Group" transform="translate(122.000000, 1677.000000)" stroke="#484848" stroke-width="4" stroke-linecap="round">
                <path d="M0,16 L54,16" id="Line"></path>
                <path d="M0,37 L54,37" id="Line-Copy"></path>
                <path d="M23,0 L11,54" id="Line-Copy"></path>
                <path d="M43.5,0 L31,54" id="Line-Copy-2"></path>
            </g>
            <path d="M46,1688.00173 C46,1685.79163 47.787167,1684 50.0072357,1684 L62.8914413,1684 C62.9513966,1684 63.0222921,1683.96879 63.0561523,1683.92139 L67.4166509,1677.81669 C67.7388257,1677.36564 68.4449463,1677 68.9933977,1677 L85.0066023,1677 C85.5552407,1677 86.2548248,1677.35675 86.5833491,1677.81669 L90.9438477,1683.92139 C90.9748597,1683.9648 91.0487671,1684 91.1085587,1684 L103.992764,1684 C106.205899,1684 108,1685.78914 108,1688.00173 L108,1725.99827 C108,1728.20837 106.211325,1730 104.003572,1730 L49.9964277,1730 C47.7892616,1730 46,1728.21086 46,1725.99827 L46,1688.00173 Z" id="Rectangle" stroke="#484848" stroke-width="4"></path>
            <circle id="Oval" stroke="#484848" stroke-width="4" cx="77" cy="1706" r="13"></circle>
            <g id="Group-3" transform="translate(263.000000, 1673.000000)">
                <circle id="Oval-13" stroke="#484848" stroke-width="4" cx="30" cy="30" r="30"></circle>
                <path d="M47.9726916,31 C47.4538099,40.475989 39.6055684,48 30,48 C20.3944316,48 12.5461901,40.475989 12.0273084,31" id="Combined-Shape" stroke="#484848" stroke-width="4" stroke-linecap="round"></path>
                <circle id="Oval-4" fill="#484848" cx="20.5" cy="22.5" r="3.5"></circle>
                <circle id="Oval-4-Copy" fill="#484848" cx="39.5" cy="22.5" r="3.5"></circle>
            </g>
            <g id="Group-11" transform="translate(473.000000, 1651.000000)" fill="#008AFE">
                <path d="M47.2231894,14.4414936 C45.7778392,11.463196 43.4316639,11.4689648 41.9891132,14.4414935 L15.0986946,69.8520544 C13.1698163,73.8267127 15.0123708,75.9500293 19.2293082,74.5897266 L41.6614559,67.3535483 C42.1831965,67.1852449 42.6061508,66.5972251 42.6061508,66.056749 L42.6061508,52.7912297 C42.6061508,51.6907528 43.4938809,50.7986401 44.6061518,50.7986401 L44.6061518,50.7986401 C45.7107218,50.7986401 46.6061527,51.6954667 46.6061527,52.7912297 L46.6061527,66.056749 C46.6061527,66.6046481 47.0325811,67.1863656 47.5508476,67.3535484 L69.9829938,74.589728 C74.1931467,75.9478425 76.0422203,73.8261685 74.113607,69.852056 L47.2231894,14.4414936 Z" id="Path-28" transform="translate(44.605555, 43.605555) rotate(-315.000000) translate(-44.605555, -43.605555) "></path>
            </g>
        </g>
    </g>
</svg>