<?xml version="1.0" encoding="UTF-8" standalone="no"?>
<svg width="72px" height="288px" viewBox="0 0 72 288" version="1.1" xmlns="http://www.w3.org/2000/svg" xmlns:xlink="http://www.w3.org/1999/xlink">
    <!-- Generator: Sketch 39.1 (31720) - http://www.bohemiancoding.com/sketch -->
    <title>Rectangle 22</title>
    <desc>Created with Sketch.</desc>
    <defs>
        <path d="M67.7680509,33.5407165 C67.7680509,49.0046895 55.2320239,61.5407165 39.7680509,61.5407165 C24.3040779,61.5407165 11.7818979,49.0046858 11.7680509,33.5407165 C11.7603046,24.8898351 14.3659942,21.8579898 14.3659942,21.8579898 C15.4063363,19.9148384 17.2367681,19.8365137 18.5573738,21.591105 C18.5573738,21.591105 24.9601992,33.2398128 39.7680509,33.2398107 C54.5759026,33.2398087 60.978728,21.5911042 60.978728,21.5911042 C62.2532209,19.7953497 64.1933302,19.874087 65.1740353,21.8725351 C65.1740353,21.8725351 67.7680509,24.8898351 67.7680509,33.5407165 Z" id="path-1"></path>
        <mask id="mask-2" maskContentUnits="userSpaceOnUse" maskUnits="objectBoundingBox" x="0" y="0" width="56.0000172" height="41.2349287" fill="white">
            <use xlink:href="#path-1"></use>
        </mask>
        <path d="M33.3999834,7.50112028 C34.8359329,6.67207444 37.1676761,6.67415811 38.6000166,7.50112028 L59.3999834,19.5099867 C60.8359329,20.3390326 62,22.3594232 62,24.0133476 L62,48.0310804 C62,49.6891721 60.8323239,51.7074791 59.3999834,52.5344413 L38.6000166,64.5433077 C37.1640671,65.3723536 34.8323239,65.3702699 33.3999834,64.5433077 L12.6000166,52.5344413 C11.1640671,51.7053954 10,49.6850048 10,48.0310804 L10,24.0133476 C10,22.3552559 11.1676761,20.3369489 12.6000166,19.5099867 L33.3999834,7.50112028 Z" id="path-3"></path>
        <mask id="mask-4" maskContentUnits="userSpaceOnUse" maskUnits="objectBoundingBox" x="0" y="0" width="52" height="60.044428" fill="white">
            <use xlink:href="#path-3"></use>
        </mask>
    </defs>
    <g id="Page-1" stroke="none" stroke-width="1" fill="none" fill-rule="evenodd">
        <g id="Mobile-Portrait-Copy-8" transform="translate(-48.000000, -636.000000)" stroke="#484848">
            <g id="Group-2" transform="translate(48.000000, 852.000000)" stroke-width="8">
                <use id="Combined-Shape" mask="url(#mask-2)" transform="translate(39.768042, 40.923252) rotate(-45.000000) translate(-39.768042, -40.923252) " xlink:href="#path-1"></use>
            </g>
            <g id="Group-3" transform="translate(48.000000, 636.000000)" stroke-width="4">
                <path d="M28.9882331,33.9966595 C18.5941869,37.0278372 11,46.6270599 11,58 C11,60.1361735 11,62.0003997 11,62.0003997 C11,62.5524637 11.4475257,63 11.998769,63 L60.001231,63 C60.5528359,63 61,62.5503038 61,62.0074314 C61,62.0074314 61,60.9429593 61,58 C61,46.6616875 53.4519873,37.0863078 43.1066304,34.0245294" id="Oval"></path>
                <path d="M36,36 C43.7319865,36 50,29.7319865 50,22 C50,14.2680135 43.7319865,8 36,8 C28.2680135,8 22,14.2680135 22,22 C22,29.7319865 28.2680135,36 36,36 Z" id="Oval-14"></path>
            </g>
            <g id="Group-4" transform="translate(48.000000, 708.000000)">
                <use id="Polygon" mask="url(#mask-4)" stroke-width="8" xlink:href="#path-3"></use>
                <circle id="Oval-2" stroke-width="4" cx="36" cy="36" r="8"></circle>
            </g>
            <g id="Group" transform="translate(48.000000, 780.000000)" stroke-width="4">
                <path d="M36.8544135,52.7673357 C36.382534,52.4871416 35.6194214,52.4859805 35.1455865,52.7673357 L22.9392575,60.015249 C20.0891366,61.7076029 18.3687579,60.4612841 19.0982454,57.2245903 L22.2194574,43.3759533 C22.3401191,42.8405844 22.1054085,42.1144624 21.6914008,41.7507622 L11.0262626,32.3815818 C8.5360026,30.1939219 9.18969596,28.1726108 12.4933987,27.8662013 L26.6287428,26.5551861 C27.1751954,26.5045041 27.7932489,26.056897 28.0112129,25.5507628 L33.626124,12.5123776 C34.9371795,9.46797553 37.061563,9.46505536 38.373876,12.5123776 L43.9887871,25.5507628 C44.2058517,26.0548084 44.8225403,26.5042941 45.3712572,26.5551861 L59.5066013,27.8662013 C62.8071382,28.1723172 63.466386,30.1918235 60.9737374,32.3815818 L50.3085992,41.7507622 C49.8962999,42.1129615 49.6593809,42.838366 49.7805426,43.3759533 L52.9017546,57.2245903 C53.6305431,60.4581825 51.9135972,61.7092262 49.0607425,60.015249 L36.8544135,52.7673357 Z" id="Star-2"></path>
            </g>
        </g>
    </g>
</svg>