<?xml version="1.0" encoding="UTF-8" standalone="no"?>
<svg width="270px" height="54px" viewBox="0 0 270 54" version="1.1" xmlns="http://www.w3.org/2000/svg" xmlns:xlink="http://www.w3.org/1999/xlink">
    <!-- Generator: Sketch 39.1 (31720) - http://www.bohemiancoding.com/sketch -->
    <title>Rectangle 17</title>
    <desc>Created with Sketch.</desc>
    <defs></defs>
    <g id="Page-1" stroke="none" stroke-width="1" fill="none" fill-rule="evenodd">
        <g id="Mobile-Portrait-Copy-4" transform="translate(-85.000000, -1219.000000)" stroke-width="4">
            <g id="Group-8" transform="translate(85.000000, 1219.000000)" stroke="#9B9FA2">
                <g id="Group-3-Copy" transform="translate(166.000000, 3.000000)">
                    <path d="M10,34 C15.5228475,34 20,29.5228475 20,24 C20,18.4771525 15.5228475,14 10,14 C4.4771525,14 0,18.4771525 0,24 C0,29.5228475 4.4771525,34 10,34 Z" id="Oval-2"></path>
                    <circle id="Oval-3" cx="40.5" cy="6.5" r="6.5"></circle>
                    <circle id="Oval-3" cx="40.5" cy="41.5" r="6.5"></circle>
                    <path d="M19.5,28.5 L34.5,38.5" id="Line" stroke-linecap="square"></path>
                    <path d="M19.5,19.5 L33,11" id="Line" stroke-linecap="square"></path>
                </g>
                <g id="Group-Copy" transform="translate(59.000000, 5.000000)">
                    <path d="M3.81246672e-08,44 C3.81246672e-08,44 15.4718184,44 22,44 C34.1502645,44 44,34.1502645 44,22 C44,9.8497355 34.1502645,0 22,0 C9.8497355,0 6.82121026e-13,9.8497355 6.82121026e-13,22 C6.82121026e-13,27.6220829 3.81246672e-08,44 3.81246672e-08,44 Z" id="Oval"></path>
                    <path d="M11,28 L22,28" id="Line" stroke-linecap="round"></path>
                    <path d="M11,19 L32,19" id="Line" stroke-linecap="round"></path>
                </g>
                <path d="M5,43.8738423 C5,47.1920228 7.678272,49.8819395 11.0090901,49.8819395 L38.6659826,49.8819395 C40.8721934,49.8819395 43.1553939,48.1547047 43.7636743,46.0309634 L48.7627476,28.5772701 C49.9800332,24.3272564 47.3865661,20.8819395 42.9698187,20.8819395 L21.755921,20.8819395 C20.6514329,20.8819395 20.0151568,20.0272515 20.3372704,18.9646541 L22.840327,10.7075011 C23.4807967,8.59470178 22.59375,5.78818954 20.8395919,4.42384435 L18.9475311,2.95224148 C16.7673699,1.25656054 14.0137939,1.88498131 12.793078,4.36432616 L5.88743329,18.3900908 C5.39731742,19.3855446 5,21.0810647 5,22.186627 L5,43.8738423 Z" id="Path-20-Copy"></path>
                <g id="Group-2-Copy" transform="translate(114.000000, 8.000000)" stroke-linecap="round">
                    <path d="M40.5,1.5 L14.5,27.5" id="Line"></path>
                    <path d="M42,29 L42,34.0000567 C42,36.2091644 40.2087482,38 37.9918888,38 L4.00811116,38 C1.79449249,38 0,36.2181492 0,34.0051562 L0,3.99484381 C0,1.7885525 1.79652125,0 3.99582624,0 L12,0" id="Rectangle-2"></path>
                    <polyline id="Path-21" points="27 0 42 0 42 15"></polyline>
                </g>
            </g>
            <g id="Group-9" transform="translate(301.000000, 1219.000000)" stroke="#008AFE" fill="#A0D4FF">
                <path d="M5,43.8738423 C5,47.1920228 7.678272,49.8819395 11.0090901,49.8819395 L38.6659826,49.8819395 C40.8721934,49.8819395 43.1553939,48.1547047 43.7636743,46.0309634 L48.7627476,28.5772701 C49.9800332,24.3272564 47.3865661,20.8819395 42.9698187,20.8819395 L21.755921,20.8819395 C20.6514329,20.8819395 20.0151568,20.0272515 20.3372704,18.9646541 L22.840327,10.7075011 C23.4807967,8.59470178 22.59375,5.78818954 20.8395919,4.42384435 L18.9475311,2.95224148 C16.7673699,1.25656054 14.0137939,1.88498131 12.793078,4.36432616 L5.88743329,18.3900908 C5.39731742,19.3855446 5,21.0810647 5,22.186627 L5,43.8738423 Z" id="Path-20-Copy"></path>
            </g>
        </g>
    </g>
</svg>