<?xml version="1.0" encoding="UTF-8" standalone="no"?>
<svg width="576px" height="144px" viewBox="0 0 576 144" version="1.1" xmlns="http://www.w3.org/2000/svg" xmlns:xlink="http://www.w3.org/1999/xlink">
    <!-- Generator: Sketch 39.1 (31720) - http://www.bohemiancoding.com/sketch -->
    <title>Rectangle 23</title>
    <desc>Created with Sketch.</desc>
    <defs>
        <rect id="path-1" x="0" y="0" width="144" height="96" rx="24"></rect>
        <mask id="mask-2" maskContentUnits="userSpaceOnUse" maskUnits="objectBoundingBox" x="0" y="0" width="144" height="96" fill="white">
            <use xlink:href="#path-1"></use>
        </mask>
        <rect id="path-3" x="0" y="0" width="144" height="96" rx="24"></rect>
        <mask id="mask-4" maskContentUnits="userSpaceOnUse" maskUnits="objectBoundingBox" x="0" y="0" width="144" height="96" fill="white">
            <use xlink:href="#path-3"></use>
        </mask>
        <rect id="path-5" x="0" y="0" width="144" height="96" rx="24"></rect>
        <mask id="mask-6" maskContentUnits="userSpaceOnUse" maskUnits="objectBoundingBox" x="0" y="0" width="144" height="96" fill="white">
            <use xlink:href="#path-5"></use>
        </mask>
        <rect id="path-7" x="0" y="0" width="144" height="96" rx="24"></rect>
        <mask id="mask-8" maskContentUnits="userSpaceOnUse" maskUnits="objectBoundingBox" x="0" y="0" width="144" height="96" fill="white">
            <use xlink:href="#path-7"></use>
        </mask>
    </defs>
    <g id="Page-1" stroke="none" stroke-width="1" fill="none" fill-rule="evenodd">
        <g id="Mobile-Portrait-Copy-7" transform="translate(-397.000000, -582.000000)" stroke="#008AFE">
            <g id="Group" transform="translate(541.000000, 606.000000)">
                <use id="Rectangle" mask="url(#mask-2)" stroke-width="6" xlink:href="#path-1"></use>
                <path d="M47.8347486,47.6327218 L67.0525501,66.161511 C67.4509835,66.5456594 68.0689842,66.5236385 68.4316292,66.1137549 L98.5787005,32.0396905" id="Path-30" stroke-width="4" stroke-linecap="round"></path>
            </g>
            <g id="Group-2" transform="translate(397.000000, 606.000000)">
                <use id="Rectangle" mask="url(#mask-4)" stroke-width="6" xlink:href="#path-3"></use>
                <path d="M74,24 L74,72" id="Line" stroke-width="4" stroke-linecap="round"></path>
                <path d="M50,48 L98,48" id="Line" stroke-width="4" stroke-linecap="round"></path>
            </g>
            <g id="Group-3" transform="translate(685.000000, 606.000000)">
                <use id="Rectangle" mask="url(#mask-6)" stroke-width="6" xlink:href="#path-5"></use>
                <path d="M46,37.9999999 L98.9931943,37.9999996 C99.5492377,37.9999996 99.6786499,37.6786495 99.2918315,37.2918311 L87,25" id="Path-33" stroke-width="4" stroke-linecap="round"></path>
                <path d="M46,70.9999999 L98.9931943,70.9999996 C99.5492377,70.9999996 99.6786499,70.6786495 99.2918315,70.2918311 L87,58" id="Path-33" stroke-width="4" stroke-linecap="round" transform="translate(72.757088, 64.500000) rotate(-180.000000) translate(-72.757088, -64.500000) "></path>
            </g>
            <g id="Group-4" transform="translate(829.000000, 606.000000)">
                <use id="Rectangle" mask="url(#mask-8)" stroke-width="6" xlink:href="#path-7"></use>
                <g id="Group-3" transform="translate(47.000000, 21.000000)" stroke-width="4">
                    <path d="M0.7102101,36.2897909 C0.317971893,36.6820291 0,37.4499498 0,38.0068465 L0,48.9941424 C0,50.1019475 0.893397331,51.000001 1.99188419,51.000001 L13.992516,51.000001 C14.5489341,51.000001 15.3058788,50.6860727 15.6919996,50.2897909 L47.4133875,17.7336289 C50.4987884,14.5670331 50.4647056,9.46470568 47.3460186,6.34601863 L44.6539814,3.65398145 C41.5313737,0.531373719 36.4711509,0.528849205 33.3499052,3.65009495 L0.7102101,36.2897909 Z" id="Path-31"></path>
                    <path d="M28,9 L42,23" id="Line" stroke-linecap="square"></path>
                </g>
            </g>
        </g>
    </g>
</svg>