<?xml version="1.0" encoding="UTF-8" standalone="no"?>
<svg width="72px" height="288px" viewBox="0 0 72 288" version="1.1" xmlns="http://www.w3.org/2000/svg" xmlns:xlink="http://www.w3.org/1999/xlink">
    <!-- Generator: Sketch 39.1 (31720) - http://www.bohemiancoding.com/sketch -->
    <title>Rectangle 2</title>
    <desc>Created with Sketch.</desc>
    <defs></defs>
    <g id="Page-1" stroke="none" stroke-width="1" fill="none" fill-rule="evenodd">
        <g id="Mobile-Portrait-Copy-9" transform="translate(-870.000000, -1030.000000)" stroke="#008AFE" stroke-width="4">
            <path d="M929,1306 C929,1293.29745 918.702549,1283 906,1283 C893.297451,1283 883,1293.29745 883,1306" id="Oval-3" stroke-linecap="round"></path>
            <g id="Group-5" transform="translate(881.000000, 1194.000000)">
                <circle id="Oval" cx="25" cy="75" r="13"></circle>
                <path d="M0,15.136797 L19.2740691,34.70466 C19.6601968,35.0966734 20.2629093,35.0753103 20.6190237,34.6583977 L50.2231979,0" id="Path-2" stroke-linecap="round"></path>
            </g>
            <g id="Group" transform="translate(882.000000, 1042.000000)" stroke-linecap="round">
                <path d="M0,24 L48,24" id="Line"></path>
                <path d="M24,0 L24,48" id="Line"></path>
            </g>
            <g id="Group-2" transform="translate(880.000000, 1117.000000)" stroke-linecap="round">
                <path d="M0,11.9795736 L51.3481359,11.9795732 C51.8998461,11.9795732 52.0336566,11.6591486 51.6491497,11.2660719 L40.6286964,0" id="Line"></path>
                <path d="M1.70530257e-13,41.9795736 L51.3481359,41.9795732 C51.8998461,41.9795732 52.0336566,41.6591486 51.6491497,41.2660719 L40.6286964,30" id="Line" transform="translate(25.934252, 35.989787) rotate(-180.000000) translate(-25.934252, -35.989787) "></path>
            </g>
        </g>
    </g>
</svg>