<?xml version="1.0" encoding="UTF-8" standalone="no"?>
<svg width="80px" height="24px" viewBox="0 0 80 24" version="1.1" xmlns="http://www.w3.org/2000/svg" xmlns:xlink="http://www.w3.org/1999/xlink">
    <!-- Generator: Sketch 39.1 (31720) - http://www.bohemiancoding.com/sketch -->
    <title>Rectangle 3 Copy</title>
    <desc>Created with Sketch.</desc>
    <defs>
        <rect id="path-1" x="0" y="0" width="18" height="18" rx="1"></rect>
        <mask id="mask-2" maskContentUnits="userSpaceOnUse" maskUnits="objectBoundingBox" x="0" y="0" width="18" height="18" fill="white">
            <use xlink:href="#path-1"></use>
        </mask>
        <rect id="path-3" x="7.5" y="11" width="3" height="6" rx="1.5"></rect>
        <mask id="mask-4" maskContentUnits="userSpaceOnUse" maskUnits="objectBoundingBox" x="0" y="0" width="3" height="6" fill="white">
            <use xlink:href="#path-3"></use>
        </mask>
        <rect id="path-5" x="0" y="7" width="18" height="14" rx="1"></rect>
        <mask id="mask-6" maskContentUnits="userSpaceOnUse" maskUnits="objectBoundingBox" x="0" y="0" width="18" height="14" fill="white">
            <use xlink:href="#path-5"></use>
        </mask>
        <path d="M3,7.98446846 L15.0000003,7.98446846 C15.0000003,7.98446846 15,7.09497467 15,6 C15,2.6862915 12.3137085,0 9,0 C5.6862915,0 3,2.6862915 3,6 C3,7.11001677 3,7.98446846 3,7.98446846 Z" id="path-7"></path>
        <mask id="mask-8" maskContentUnits="userSpaceOnUse" maskUnits="objectBoundingBox" x="0" y="0" width="12.0000003" height="7.98446846" fill="white">
            <use xlink:href="#path-7"></use>
        </mask>
        <rect id="path-9" x="0" y="0" width="20" height="16" rx="1"></rect>
        <mask id="mask-10" maskContentUnits="userSpaceOnUse" maskUnits="objectBoundingBox" x="0" y="0" width="20" height="16" fill="white">
            <use xlink:href="#path-9"></use>
        </mask>
    </defs>
    <g id="Page-1" stroke="none" stroke-width="1" fill="none" fill-rule="evenodd">
        <g id="Mobile-Portrait-Copy" transform="translate(-16.000000, -269.000000)">
            <g id="Group-6" transform="translate(17.000000, 282.000000)"></g>
            <g id="Group-Copy-3" transform="translate(77.000000, 272.000000)" stroke="#000000">
                <use id="Rectangle" mask="url(#mask-2)" stroke-width="2" xlink:href="#path-1"></use>
                <path d="M4.5,8.79180284 L7.65529596,11.9470988 C7.84793096,12.1397338 8.16264722,12.1373406 8.36469432,11.9352935 L13.5,6.79998779" id="Path-2" stroke-linecap="round"></path>
            </g>
            <g id="Group-Copy" transform="translate(37.000000, 271.000000)" stroke="#000000" stroke-width="2">
                <use id="Rectangle-2" mask="url(#mask-4)" xlink:href="#path-3"></use>
                <use id="Rectangle" mask="url(#mask-6)" xlink:href="#path-5"></use>
                <use id="Oval-6" mask="url(#mask-8)" xlink:href="#path-7"></use>
            </g>
            <g id="Group-3-Copy" transform="translate(56.000000, 273.000000)" stroke="#000000">
                <use id="Rectangle-3" mask="url(#mask-10)" stroke-width="2" xlink:href="#path-9"></use>
                <path d="M1,1 L9.66901152,6.77934101 C9.85181141,6.90120761 10.1562118,6.89585876 10.3309885,6.77934101 L18.9999998,1" id="Path-12"></path>
            </g>
            <path d="M31.5,277 C31.5,273.959991 29.0375661,271.5 26,271.5 C22.9624339,271.5 20.5,273.959991 20.5,277 C20.5,280.040009 23.3108937,281.762251 23.3108937,281.762251 C23.4430816,281.852493 23.4266558,281.975989 23.282207,282.036434 C23.282207,282.036434 20.7235067,283.046586 19.636039,284.160004 C16.2761239,287.502089 16.9678751,290.310514 16.9678751,290.310514 C16.9856172,290.415164 17.0802517,290.5 17.2021484,290.5 L34.7978516,290.5 C34.9094951,290.5 35.0174761,290.410231 35.0323526,290.310962 C35.0323526,290.310962 35.7279221,287.51004 32.363961,284.160004 C31.2752581,283.049349 28.7050922,282.033313 28.7050922,282.033313 C28.5627736,281.9745 28.5633395,281.850269 28.6869338,281.763332 C28.6869338,281.763332 31.5,280.040009 31.5,277 Z" id="Combined-Shape" stroke="#000000"></path>
        </g>
    </g>
</svg>