<?xml version="1.0" encoding="UTF-8" standalone="no"?>
<svg width="1296px" height="144px" viewBox="0 0 1296 144" version="1.1" xmlns="http://www.w3.org/2000/svg" xmlns:xlink="http://www.w3.org/1999/xlink">
    <!-- Generator: Sketch 39.1 (31720) - http://www.bohemiancoding.com/sketch -->
    <title>Rectangle 20</title>
    <desc>Created with Sketch.</desc>
    <defs></defs>
    <g id="Page-1" stroke="none" stroke-width="1" fill="none" fill-rule="evenodd">
        <g id="Mobile-Portrait-Copy-6" transform="translate(-12.000000, -83.000000)">
            <g id="Group-4" transform="translate(12.000000, 84.000000)" fill="#262626">
                <rect id="Rectangle" x="45" y="54" width="54" height="6"></rect>
                <rect id="Rectangle-Copy" x="45" y="69" width="54" height="6"></rect>
                <rect id="Rectangle-Copy-2" x="45" y="84" width="54" height="6"></rect>
            </g>
            <g id="Group-6" transform="translate(156.000000, 84.000000)" stroke="#262626" stroke-width="4">
                <circle id="Oval-4" cx="69.5" cy="69.5" r="22.5"></circle>
                <path d="M85.5,85.5 L101.008062,101.008062" id="Line" stroke-linecap="round"></path>
            </g>
            <g id="Group-7" transform="translate(300.000000, 84.000000)" stroke="#212121" stroke-width="4" stroke-linecap="round">
                <path d="M50.7867966,93.2132034 L93.2132034,50.7867966" id="Line"></path>
                <path d="M50.7867966,50.7867966 L93.2132034,93.2132034" id="Line"></path>
            </g>
            <g id="Group-6" transform="translate(444.000000, 84.000000)" stroke="#909090" stroke-width="4">
                <g id="Group-5" transform="translate(79.000000, 65.000000) rotate(-315.000000) translate(-79.000000, -65.000000) translate(51.000000, 36.000000)">
                    <path d="M28.3466898,0.899401433 C28.10613,0.402675737 27.7179804,0.401344144 27.4783022,0.899401437 L0.432815513,57.1005977 C0.193778106,57.5973234 0.438417018,57.8743382 0.960763868,57.724621 L27.9111183,49.9999988 L55.0331178,57.7246207 C55.5671125,57.8767078 55.8056333,57.5986547 55.5644286,57.1005974 L28.3466898,0.899401433 Z" id="Path-26"></path>
                    <path d="M28,49.5 L28,36" id="Line" stroke-linecap="round"></path>
                </g>
            </g>
            <g id="Group-6-Copy" transform="translate(588.000000, 84.000000)" stroke="#008AFE" stroke-width="4">
                <g id="Group-5" transform="translate(79.000000, 65.000000) rotate(-315.000000) translate(-79.000000, -65.000000) translate(51.000000, 36.000000)">
                    <path d="M28.3466898,0.899401433 C28.10613,0.402675737 27.7179804,0.401344144 27.4783022,0.899401437 L0.432815513,57.1005977 C0.193778106,57.5973234 0.438417018,57.8743382 0.960763868,57.724621 L27.9111183,49.9999988 L55.0331178,57.7246207 C55.5671125,57.8767078 55.8056333,57.5986547 55.5644286,57.1005974 L28.3466898,0.899401433 Z" id="Path-26"></path>
                    <path d="M28,49.5 L28,36" id="Line" stroke-linecap="round"></path>
                </g>
            </g>
            <g id="Group-9" transform="translate(876.000000, 84.000000)" fill="#212121">
                <circle id="Oval-6" cx="72" cy="51" r="5"></circle>
                <circle id="Oval-6-Copy" cx="72" cy="72" r="5"></circle>
                <circle id="Oval-6-Copy-2" cx="72" cy="93" r="5"></circle>
            </g>
            <g id="Group-8" transform="translate(732.000000, 84.000000)" stroke="#484848" stroke-width="5" stroke-linecap="round">
                <path d="M67,94 L45.7070623,72.7070619 C45.3165626,72.3165622 45.3109989,71.6890007 45.7070623,71.2929373 L67,50" id="Path-27"></path>
                <path d="M49,72 L101,72" id="Line"></path>
            </g>
            <g id="Group-8-Copy" transform="translate(1020.000000, 84.000000)" stroke="#FFFFFF" stroke-width="5" stroke-linecap="round">
                <path d="M67,94 L45.7070623,72.7070619 C45.3165626,72.3165622 45.3109989,71.6890007 45.7070623,71.2929373 L67,50" id="Path-27"></path>
                <path d="M49,72 L101,72" id="Line"></path>
            </g>
            <g id="Group-9-Copy" transform="translate(1164.000000, 84.000000)" fill="#FFFFFF">
                <circle id="Oval-6" cx="72" cy="51" r="5"></circle>
                <circle id="Oval-6-Copy" cx="72" cy="72" r="5"></circle>
                <circle id="Oval-6-Copy-2" cx="72" cy="93" r="5"></circle>
            </g>
        </g>
    </g>
</svg>